<svg xmlns="http://www.w3.org/2000/svg" xmlns:xlink="http://www.w3.org/1999/xlink" 
version="1.1" x="0px" y="0px" viewBox="0 0 100 125" enable-background="new 0 0 100 100" 
xml:space="preserve" fill="#ffffff">
<circle cx="37.543" cy="26.237" r="8.033"/><g><circle cx="31.36" cy="47.35" r="0.258"/>
<path d="M45.834,62.863V62.52c0.011-0.166,0.026,0.469,0.026,0.301V45.296c0.506,0.765,0.841,
1.671,0.841,2.764v13.249   c0,1.461,1.185,2.645,2.645,2.645c1.461,0,2.648-1.184,
2.648-2.645V48.061c0-6.626-5.758-9.985-9.706-11.147   c0.566,1.265,1.465,4.035,0.935,7.972c0.912,0.345,1.563,
1.22,1.563,2.251c0,1.332-1.084,2.416-2.416,2.416   c-1.329,0-2.415-1.083-2.415-2.416c0-1.264,
0.979-2.292,2.218-2.396c0.678-5.017-1.156-8.002-1.176-8.033   
c-0.037-0.06-0.06-0.123-0.072-0.187c-1.033-0.464-2.174-0.74-3.382-0.74c-1.301,0-2.526,
0.309-3.625,0.84l-0.001,0.001v6.751   c0.639,0.094,1.155,0.359,1.53,0.807c0.694,0.826,
0.673,1.988,0.628,2.479c0.169,0.182,0.279,0.421,0.279,0.691   
c0,0.559-0.454,1.014-1.014,1.014c-0.561,0-1.014-0.456-1.014-1.014c0-0.45,0.299-0.819,0.705-0.952   
c0.017-0.4-0.013-1.085-0.398-1.541c-0.267-0.318-0.676-0.471-1.246-0.471c-0.576,0-0.994,0.158-1.275,0.48   
c-0.385,0.454-0.442,1.133-0.435,1.534c0.401,0.133,0.696,0.503,0.696,0.949c0,0.559-0.456,1.014-1.015,1.014   
c-0.558,0-1.013-0.456-1.013-1.014c0-0.272,0.11-0.515,0.283-0.698c-0.034-0.485-0.029-1.648,0.682-2.473   
c0.386-0.447,0.908-0.712,1.548-0.806v-6.48c-3.952,1.141-9.777,4.501-9.777,11.167v13.249c0,1.461,1.186,2.645,2.648,
2.645   c1.46,0,2.647-1.184,2.647-2.645V48.061c0-1.099,0.336-2.012,0.849-2.778v16.437c0,0.013-0.004,0.822-0.004,
0.835v0.307   L45.834,62.863z"/><circle cx="35.343" cy="47.35" r="0.258"/><path d="M41.015,47.136c0,0.748,0.608,
1.356,1.356,1.356c0.75,0,1.355-0.609,1.355-1.356c0-0.748-0.606-1.356-1.355-1.356   C41.623,45.78,41.015,46.388,
41.015,47.136z M42.389,46.147c0.557,0,1.008,0.452,1.008,1.008c0,0.555-0.451,1.006-1.008,1.006   
c-0.554,0-1.007-0.452-1.007-1.006C41.382,46.599,41.835,46.147,42.389,46.147z"/>
<circle cx="42.389" cy="47.154" r="0.505"/></g><g><g><path d="M39.036,68.804c0-0.55-0.45-1-1-1h-0.619c-0.55,0-1,
0.45-1,1v1.35c0,0.55-0.45,1-1,1h-1.35c-0.55,0-1,0.45-1,1v0.618    c0,0.55,0.45,1,1,1h1.35c0.55,0,1,0.45,1,1v1.35c0,
0.55,0.45,1,1,1h0.619c0.55,0,1-0.45,1-1v-1.35c0-0.55,0.45-1,1-1h1.35    c0.55,0,1-0.45,
1-1v-0.618c0-0.55-0.45-1-1-1h-1.35c-0.55,0-1-0.45-1-1V68.804z"/></g><g><path d="M8.865,56.995c-0.55,0-1,0.45-1,
1v27.55c0,0.55,0.45,1,1,1h57.864c0.55,0,1-0.45,1-1v-27.55c0-0.55-0.45-1-1-1H8.865z     M37.554,80.499c-4.381,
0-7.931-3.55-7.931-7.93s3.55-7.931,7.931-7.931c4.38,0,7.931,3.551,7.931,7.931    S41.934,80.499,37.554,80.499z"/>
</g></g><circle cx="82.744" cy="16.139" r="7.188"/><path d="M64.729,45.023l5.917-2.82l5.712-7.667c0.345-1.984,
0.619-3.256,0.658-3.431c0.908-4.15,5.014-6.78,9.158-5.871  c4.151,0.908,6.779,5.008,5.871,9.158c-0.799,
3.652-2.656,14.764-1.674,22.225c0.355,2.702-0.742,5.255-2.682,6.888v22.55  c0,2.731-2.213,4.945-4.945,4.945c-2.73,
0-4.945-2.214-4.945-4.945V63.508c-1.421-1.193-2.418-2.897-2.681-4.882  c-0.547-4.154-0.479-8.77-0.158-13.017l-0.314,
0.422c-0.268,0.358-0.618,0.646-1.021,0.839l-6.532,3.113  c-0.381,0.182-0.784,0.268-1.179,0.268c-1.027,
0-2.011-0.578-2.483-1.566C62.778,47.315,63.359,45.676,64.729,45.023z"/>
</svg>